<svg width="568" height="128" viewBox="0 0 142 32" fill="none" xmlns="http://www.w3.org/2000/svg">
<g clip-path="url(#clip0_1114_5055)">
<path d="M15.8484 22.2484C15.7734 22.3734 15.9234 22.4984 16.0234 22.3984C21.6484 16.7734 25.5734 13.8234 27.0984 13.9984C31.2984 14.5234 26.6234 29.4234 16.1484 31.1984C15.9984 31.2234 16.0234 31.4484 16.1734 31.4234C24.2234 31.0484 30.9234 24.2984 30.8734 15.9984C30.8734 13.6234 30.4234 11.4984 29.3984 9.39844C23.9734 12.7734 19.1484 16.8234 15.8484 22.2484Z" fill="#1B7BF2"/>
<path d="M28.7494 6.87293C29.9244 6.37293 30.5744 6.12293 31.0494 5.52293C31.7244 4.64793 31.2244 3.12293 29.4494 3.39793C28.2494 3.57293 27.0244 4.12293 25.7744 4.82293C16.1244 10.2229 8.99942 19.7229 6.32442 30.6229C6.29942 30.7729 6.49942 30.8229 6.54942 30.6979C12.1244 17.7729 19.3994 10.7979 28.7494 6.87293Z" fill="#1B7BF2"/>
<path d="M16.6742 3.74888C16.9742 4.24888 16.7492 4.79888 16.1742 5.52388C14.3742 7.77388 9.99922 12.3489 8.14922 16.5489C8.09922 16.6739 8.27422 16.7739 8.34922 16.6739C12.4992 11.0739 17.5992 6.34888 23.7992 3.04888C13.2242 -3.77612 -1.17578 4.32388 0.0742162 17.5989C0.0992162 17.7489 0.299216 17.7489 0.299216 17.5989C0.474216 8.57388 8.87422 3.54888 13.6492 2.97388C15.1242 2.79888 16.2742 3.04888 16.6742 3.74888Z" fill="#1B7BF2"/>
<path d="M45.0242 10.5238H46.9742V20.0488H45.0242V18.4488C44.2492 19.6488 43.1492 20.2488 41.6992 20.2488C40.4242 20.2488 39.3492 19.7738 38.5492 18.8488C37.7242 17.9238 37.3242 16.7238 37.3242 15.2738C37.3242 13.8238 37.7492 12.6488 38.5742 11.6988C39.3992 10.7738 40.4492 10.2988 41.6992 10.2988C43.1492 10.2988 44.2742 10.9238 45.0492 12.1238L45.0242 10.5238ZM42.0992 18.3738C42.9492 18.3738 43.6492 18.0738 44.1992 17.4988C44.7492 16.9238 45.0242 16.1738 45.0242 15.2738C45.0242 14.3738 44.7492 13.6238 44.1992 13.0488C43.6492 12.4738 42.9492 12.1738 42.0992 12.1738C41.2492 12.1738 40.5742 12.4738 40.0492 13.0488C39.5242 13.6238 39.2492 14.3738 39.2492 15.2738C39.2492 16.1738 39.5242 16.9238 40.0492 17.4988C40.5992 18.0738 41.2742 18.3738 42.0992 18.3738Z" fill="black"/>
<path d="M50.8984 18.1984H56.4484V20.0484H48.3984V18.1984L53.8484 12.3734H48.7234V10.5234H56.3734V12.3734L50.8984 18.1984Z" fill="black"/>
<path d="M62.1492 10.2988C63.6742 10.2988 64.8742 10.8238 65.7492 11.8738C66.6242 12.9238 67.0492 14.2238 66.9492 15.8238H59.1992C59.2742 16.6738 59.5992 17.3488 60.1242 17.8238C60.6742 18.2988 61.3492 18.5488 62.1742 18.5488C62.7492 18.5488 63.2742 18.4238 63.7242 18.1988C64.1742 17.9488 64.4992 17.5988 64.7242 17.1488H66.7492C66.3992 18.1738 65.7992 18.9488 64.9742 19.4988C64.1492 20.0488 63.1992 20.2988 62.1492 20.2988C60.6992 20.2988 59.5242 19.8238 58.5992 18.8988C57.6742 17.9738 57.1992 16.7738 57.1992 15.3488C57.1992 13.9238 57.6742 12.7238 58.5742 11.7738C59.5242 10.7738 60.6992 10.2988 62.1492 10.2988ZM62.1492 11.9988C61.4242 11.9988 60.7992 12.1988 60.3242 12.6238C59.8242 13.0238 59.4992 13.5738 59.3242 14.2238H64.8742C64.7242 13.5488 64.3992 13.0238 63.9242 12.5988C63.4242 12.1988 62.8492 11.9988 62.1492 11.9988Z" fill="black"/>
<path d="M73.5996 10.2988C73.8496 10.2988 74.0246 10.3238 74.1746 10.3488V12.3488C73.9496 12.3238 73.7496 12.3238 73.5746 12.3238C72.6246 12.3238 71.8746 12.5988 71.2996 13.1738C70.7246 13.7488 70.4246 14.5738 70.4246 15.6988V20.0738H68.4746V10.4988H70.4246V12.3738C71.0246 10.9988 72.0996 10.2988 73.5996 10.2988Z" fill="black"/>
<path d="M79.675 20.2488C78.275 20.2488 77.1 19.7738 76.15 18.8238C75.2 17.8738 74.75 16.6988 74.75 15.2738C74.75 13.8488 75.225 12.6738 76.15 11.7238C77.075 10.7738 78.275 10.2988 79.7 10.2988C80.85 10.2988 81.875 10.6238 82.75 11.2988C83.625 11.9738 84.175 12.8488 84.375 13.9738H82.35C82.175 13.3738 81.85 12.9238 81.35 12.5988C80.85 12.2738 80.3 12.1238 79.7 12.1238C78.825 12.1238 78.1 12.4238 77.55 12.9988C77 13.5988 76.725 14.3488 76.725 15.2738C76.725 16.1988 77 16.9488 77.55 17.5488C78.1 18.1488 78.825 18.4238 79.675 18.4238C80.3 18.4238 80.875 18.2488 81.35 17.9238C81.825 17.5988 82.15 17.1238 82.35 16.5488H84.375C84.15 17.6988 83.6 18.5988 82.725 19.2488C81.85 19.9238 80.85 20.2488 79.675 20.2488Z" fill="black"/>
<path d="M90.3484 10.2988C91.7234 10.2988 92.8984 10.7738 93.8484 11.7238C94.7984 12.6738 95.2734 13.8488 95.2734 15.2738C95.2734 16.6988 94.7984 17.8738 93.8484 18.8238C92.8984 19.7738 91.7234 20.2488 90.3234 20.2488C88.9234 20.2488 87.7734 19.7738 86.8234 18.8238C85.8734 17.8738 85.3984 16.6988 85.3984 15.2738C85.3984 13.8488 85.8734 12.6738 86.8484 11.7238C87.8234 10.7738 88.9734 10.2988 90.3484 10.2988ZM92.4484 13.0488C91.8734 12.4738 91.1734 12.1738 90.3484 12.1738C89.5234 12.1738 88.8234 12.4738 88.2484 13.0488C87.6734 13.6238 87.3984 14.3738 87.3984 15.2738C87.3984 16.1738 87.6734 16.9238 88.2484 17.4988C88.8234 18.0738 89.5234 18.3738 90.3734 18.3738C91.2234 18.3738 91.9234 18.0738 92.4984 17.4988C93.0734 16.9238 93.3484 16.1738 93.3484 15.2738C93.3484 14.3738 93.0234 13.6238 92.4484 13.0488Z" fill="black"/>
<path d="M100.925 20.2496C99.675 20.2496 98.625 19.9496 97.775 19.3746C96.925 18.7996 96.425 17.9996 96.25 16.9746H98.25C98.4 17.4996 98.7 17.8996 99.125 18.1496C99.55 18.3996 100.175 18.5246 100.975 18.5246C101.6 18.5246 102.1 18.4246 102.475 18.2496C102.85 18.0496 103.025 17.7996 103.025 17.4496C103.025 17.2246 102.925 17.0246 102.75 16.8746C102.575 16.7246 102.375 16.6246 102.125 16.5496C101.875 16.4746 101.5 16.3746 100.975 16.2496C100.775 16.1996 100.625 16.1746 100.525 16.1496C99.1 15.7996 98.125 15.4496 97.55 15.0746C96.975 14.6996 96.725 14.1246 96.725 13.3746C96.725 12.4246 97.1 11.6746 97.825 11.1496C98.55 10.5996 99.525 10.3496 100.75 10.3496C101.975 10.3496 102.875 10.5996 103.575 11.1246C104.275 11.6496 104.725 12.3496 104.9 13.2496H102.925C102.65 12.4746 101.9 12.0996 100.7 12.0996C100.075 12.0996 99.575 12.1996 99.225 12.3996C98.875 12.5996 98.7 12.8496 98.7 13.1996C98.7 13.4996 98.85 13.6996 99.125 13.8246C99.4 13.9496 100.025 14.1246 100.95 14.3496C101.55 14.4746 102.025 14.5996 102.375 14.6996C102.725 14.7996 103.1 14.9246 103.475 15.0996C103.85 15.2746 104.15 15.4246 104.35 15.6246C104.55 15.8246 104.7 16.0496 104.825 16.2996C104.95 16.5496 105.025 16.8996 105.025 17.2746C105.025 18.2496 104.65 18.9996 103.875 19.5246C103.1 19.9746 102.125 20.2496 100.925 20.2496Z" fill="black"/>
<path d="M117.675 10.2988C118.675 10.2988 119.475 10.6238 120.05 11.2488C120.625 11.8988 120.9 12.7738 120.9 13.8988V20.0238H118.95V14.3488C118.95 12.8988 118.325 12.1738 117.075 12.1738C116.325 12.1738 115.75 12.4488 115.35 12.9738C114.95 13.4988 114.75 14.2238 114.75 15.0988L114.775 20.0488H112.75V14.3488C112.75 12.8988 112.125 12.1738 110.875 12.1738C110.125 12.1738 109.55 12.4488 109.15 12.9738C108.75 13.4988 108.55 14.2238 108.55 15.0988V20.0488H106.6V10.4988H108.55V12.0238C109.25 10.8738 110.225 10.2988 111.525 10.2988C113 10.2988 113.975 10.9738 114.475 12.2988C115.15 10.9738 116.225 10.2988 117.675 10.2988Z" fill="black"/>
<path d="M127.325 10.2988C128.7 10.2988 129.875 10.7738 130.825 11.7238C131.775 12.6738 132.25 13.8488 132.25 15.2738C132.25 16.6988 131.775 17.8738 130.825 18.8238C129.875 19.7738 128.7 20.2488 127.3 20.2488C125.9 20.2488 124.75 19.7738 123.8 18.8238C122.85 17.8738 122.375 16.6988 122.375 15.2738C122.375 13.8488 122.85 12.6738 123.825 11.7238C124.8 10.7738 125.95 10.2988 127.325 10.2988ZM129.45 13.0488C128.875 12.4738 128.175 12.1738 127.35 12.1738C126.525 12.1738 125.825 12.4738 125.25 13.0488C124.675 13.6238 124.4 14.3738 124.4 15.2738C124.4 16.1738 124.675 16.9238 125.25 17.4988C125.825 18.0738 126.525 18.3738 127.375 18.3738C128.225 18.3738 128.925 18.0738 129.475 17.4988C130.05 16.9238 130.325 16.1738 130.325 15.2738C130.325 14.3738 130 13.6238 129.45 13.0488Z" fill="black"/>
<path d="M137.9 20.2496C136.65 20.2496 135.6 19.9496 134.75 19.3746C133.925 18.7996 133.4 17.9996 133.225 16.9746H135.225C135.375 17.4996 135.675 17.8996 136.1 18.1496C136.525 18.3996 137.15 18.5246 137.95 18.5246C138.575 18.5246 139.075 18.4246 139.45 18.2496C139.825 18.0746 140 17.7996 140 17.4496C140 17.2246 139.9 17.0246 139.725 16.8746C139.55 16.7246 139.35 16.6246 139.1 16.5496C138.85 16.4746 138.475 16.3746 137.95 16.2496C137.75 16.1996 137.6 16.1746 137.5 16.1496C136.075 15.7996 135.1 15.4496 134.55 15.0746C134 14.6996 133.725 14.1246 133.725 13.3746C133.725 12.4246 134.1 11.6746 134.825 11.1496C135.55 10.5996 136.525 10.3496 137.75 10.3496C138.975 10.3496 139.875 10.5996 140.575 11.1246C141.275 11.6496 141.725 12.3496 141.9 13.2496H139.925C139.65 12.4746 138.9 12.0996 137.7 12.0996C137.075 12.0996 136.575 12.1996 136.225 12.3996C135.875 12.5996 135.675 12.8496 135.675 13.1996C135.675 13.4996 135.825 13.6996 136.1 13.8246C136.4 13.9496 137 14.1246 137.925 14.3496C138.525 14.4746 139 14.5996 139.35 14.6996C139.7 14.7996 140.075 14.9246 140.45 15.0996C140.825 15.2746 141.125 15.4246 141.325 15.6246C141.525 15.8246 141.675 16.0496 141.8 16.2996C141.925 16.5496 142 16.8996 142 17.2746C142 18.2496 141.625 18.9996 140.85 19.5246C140.075 20.0496 139.1 20.2496 137.9 20.2496Z" fill="black"/>
</g>
<defs>
<clipPath id="clip0_1114_5055">
<rect width="142" height="30.85" fill="black" transform="translate(0 0.574219)"/>
</clipPath>
</defs>
</svg>
